<svg xmlns="http://www.w3.org/2000/svg" xmlns:xlink="http://www.w3.org/1999/xlink" width="30" height="120" viewBox="0 0 30 120"><svg viewBox="0 0 56.7 56.7" enable-background="new 0 0 56.7 56.7" width="30" height="30" id="instagram" y="0"><style type="text/css">.st0{fill:#FFFFFF;}</style><path class="st0" d="M43.4 4.8H13c-5.3 0-9.6 4.3-9.6 9.6v30.4c0 5.3 4.3 9.6 9.6 9.6h30.4c5.3 0 9.6-4.3 9.6-9.6V14.4c0-5.3-4.3-9.6-9.6-9.6zm2.8 5.7h1.1v8.4h-8.4v-8.4h7.3zm-25.1 14c1.6-2.2 4.2-3.6 7.1-3.6s5.5 1.4 7.1 3.6c1 1.4 1.7 3.2 1.7 5.1 0 4.8-3.9 8.7-8.7 8.7-4.8 0-8.7-3.9-8.7-8.7-.1-1.9.5-3.6 1.5-5.1zm27.1 20.3c0 2.6-2.1 4.8-4.8 4.8H13c-2.6 0-4.8-2.1-4.8-4.8V24.5h7.4c-.6 1.6-1 3.3-1 5.1 0 7.5 6.1 13.6 13.6 13.6s13.6-6.1 13.6-13.6c0-1.8-.4-3.5-1-5.1h7.4v20.3z"/></svg><svg viewBox="0 0 56.7 56.7" enable-background="new 0 0 56.7 56.7" width="30" height="30" id="linkedin" y="30"><style type="text/css">.st0{fill:#FFFFFF;}</style><path class="st0" d="M30.1 27.1c0-.1-.1 0 0 0zM49.3 4.7H7.1c-2 0-3.7 1.6-3.7 3.6v42.6c0 2 1.6 3.6 3.7 3.6h42.1c2 0 3.7-1.6 3.7-3.6V8.2c0-1.9-1.6-3.5-3.6-3.5zM18.5 46.3H11V23.8h7.5v22.5zm-3.8-25.5c-2.6 0-4.2-1.7-4.2-3.9s1.7-3.9 4.2-3.9c2.6 0 4.1 1.7 4.2 3.9.1 2.2-1.6 3.9-4.2 3.9zm30.7 25.5h-7.5v-12c0-3-1.1-5.1-3.8-5.1-2.1 0-3.3 1.4-3.8 2.7-.2.5-.2 1.1-.2 1.8v12.5h-7.5s.1-20.4 0-22.5h7.5V27c1-1.5 2.8-3.7 6.7-3.7 4.9 0 8.6 3.2 8.6 10.1v12.9z"/></svg><svg viewBox="0 0 650 650" enable-background="new 0 0 650 650" width="30" height="30" id="mail" y="60"><style type="text/css">.st0{fill:#FFFFFF;}</style><path class="st0" d="M646.8 500.5V210.6S354.3 414.7 325.7 425.7C297.7 415.4 3.2 210.6 3.2 210.6v289.9c0 40.3 8.4 48.1 48.1 48.1H598c41 0 48.8-7.1 48.8-48.1zm-.7-346.4c0-29.2-8.5-39.7-47.5-39.7H51.4c-40.3 0-48.1 12.3-48.1 41.6l.7 4.6s290.5 200.2 321.8 211.3c32.5-13 321.1-215.8 321.1-215.8l-.8-2z" id="cYour_Icon"/></svg><svg viewBox="0 0 56.7 56.7" enable-background="new 0 0 56.7 56.7" width="30" height="30" id="twitter" y="90"><style type="text/css">.st0{fill:#FFFFFF;}</style><path class="st0" d="M52.8 15.1c-1.8.8-3.8 1.3-5.8 1.6 2.1-1.2 3.7-3.2 4.4-5.6-2 1.2-4.1 2-6.4 2.5-1.8-2-4.5-3.2-7.4-3.2-5.6 0-10.1 4.5-10.1 10.1 0 .8.1 1.6.3 2.3C19.4 22.3 12 18.3 7 12.2c-.9 1.5-1.4 3.2-1.4 5.1 0 3.5 1.8 6.6 4.5 8.4-1.7-.1-3.2-.5-4.6-1.3v.1c0 4.9 3.5 9 8.1 9.9-.8.2-1.7.4-2.7.4-.7 0-1.3-.1-1.9-.2 1.3 4 5 6.9 9.4 7C15.1 44.3 10.7 46 6 46c-.8 0-1.6 0-2.4-.1 4.5 2.9 9.8 4.5 15.5 4.5 18.6 0 28.8-15.4 28.8-28.8v-1.3c1.9-1.4 3.6-3.2 4.9-5.2z"/></svg></svg>