<?xml version="1.0" encoding="utf-8"?><svg xmlns="http://www.w3.org/2000/svg" xmlns:xlink="http://www.w3.org/1999/xlink"><defs><svg viewBox="0 0 25 25" id="down-arrow"><path d="M1 7c0-.3.1-.5.3-.7.4-.4 1.1-.4 1.4 0l9.9 9.8 9.8-9.8c.4-.4 1.1-.4 1.4 0 .4.4.4 1.1 0 1.4L12.5 18.9 1.3 7.7C1.1 7.5 1 7.3 1 7z"/></svg><svg viewBox="0 0 56.7 56.7" id="instagram"><style>.bst0{fill:#fff}</style><path class="bst0" d="M43.4 4.8H13c-5.3 0-9.6 4.3-9.6 9.6v30.4c0 5.3 4.3 9.6 9.6 9.6h30.4c5.3 0 9.6-4.3 9.6-9.6V14.4c0-5.3-4.3-9.6-9.6-9.6zm2.8 5.7h1.1v8.4h-8.4v-8.4h7.3zm-25.1 14c1.6-2.2 4.2-3.6 7.1-3.6s5.5 1.4 7.1 3.6c1 1.4 1.7 3.2 1.7 5.1 0 4.8-3.9 8.7-8.7 8.7-4.8 0-8.7-3.9-8.7-8.7-.1-1.9.5-3.6 1.5-5.1zm27.1 20.3c0 2.6-2.1 4.8-4.8 4.8H13c-2.6 0-4.8-2.1-4.8-4.8V24.5h7.4c-.6 1.6-1 3.3-1 5.1 0 7.5 6.1 13.6 13.6 13.6s13.6-6.1 13.6-13.6c0-1.8-.4-3.5-1-5.1h7.4v20.3z"/></svg><svg viewBox="0 0 56.7 56.7" id="linkedin"><style>.cst0{fill:#fff}</style><path class="cst0" d="M30.1 27.1c0-.1-.1 0 0 0zM49.3 4.7H7.1c-2 0-3.7 1.6-3.7 3.6v42.6c0 2 1.6 3.6 3.7 3.6h42.1c2 0 3.7-1.6 3.7-3.6V8.2c0-1.9-1.6-3.5-3.6-3.5zM18.5 46.3H11V23.8h7.5v22.5zm-3.8-25.5c-2.6 0-4.2-1.7-4.2-3.9s1.7-3.9 4.2-3.9c2.6 0 4.1 1.7 4.2 3.9.1 2.2-1.6 3.9-4.2 3.9zm30.7 25.5h-7.5v-12c0-3-1.1-5.1-3.8-5.1-2.1 0-3.3 1.4-3.8 2.7-.2.5-.2 1.1-.2 1.8v12.5h-7.5s.1-20.4 0-22.5h7.5V27c1-1.5 2.8-3.7 6.7-3.7 4.9 0 8.6 3.2 8.6 10.1v12.9z"/></svg><svg viewBox="0 0 650 650" id="mail"><path class="dst0" d="M646.8 500.5V210.6S354.3 414.7 325.7 425.7C297.7 415.4 3.2 210.6 3.2 210.6v289.9c0 40.3 8.4 48.1 48.1 48.1H598c41 0 48.8-7.1 48.8-48.1zm-.7-346.4c0-29.2-8.5-39.7-47.5-39.7H51.4c-40.3 0-48.1 12.3-48.1 41.6l.7 4.6s290.5 200.2 321.8 211.3c32.5-13 321.1-215.8 321.1-215.8l-.8-2z"/></svg><svg viewBox="0 0 38.3 37" id="medium"><path d="M29.8 12.3H29c-.3 0-.8.5-.8.8v10.7c0 .3.5.7.8.7h.9V27H22v-2.5h1.6V13.2h-.1L19.7 27h-2.9L13 13.2v11.2h1.6v2.5H8.1v-2.5h.8c.3 0 .8-.4.8-.7V13c0-.3-.5-.8-.8-.8h-.8V9.7h8.1l2.7 10h.1l2.7-10h8.1v2.6z"/></svg><svg viewBox="0 0 40 40" id="our-work"><path d="M0 1.9h9.4v8.6H0zm13.9 1.8H40v1.8H13.9zm0 3.4H40v1.8H13.9zm0 10.4H40v1.8H13.9zm0 3.5H40v1.8H13.9zm0 10.4H40v1.8H13.9zm0 3.4H40v1.8H13.9zM0 29.8h9.4v8.6H0zm0-14h9.4v8.6H0z"/></svg><svg viewBox="0 36 16 16" id="pin"><path d="M8 37.1c-2.8 0-5 2.3-5 5l5 8.7s5-6 5-8.7-2.2-5-5-5zm0 7.1c-1 0-1.9-.8-1.9-1.9 0-1 .8-1.9 1.9-1.9s1.9.8 1.9 1.9S9 44.2 8 44.2z"/></svg><svg viewBox="0 0 25 25" id="right-arrow"><path d="M7.1 24c-.3 0-.5-.1-.7-.3-.4-.4-.4-1.1 0-1.4l9.8-9.9-9.8-9.8c-.4-.4-.4-1.1 0-1.4.4-.4 1.1-.4 1.4 0L19 12.5 7.8 23.7c-.2.2-.4.3-.7.3z"/></svg><svg viewBox="0 0 56.7 56.7" id="twitter"><style>.ist0{fill:#fff}</style><path class="ist0" d="M52.8 15.1c-1.8.8-3.8 1.3-5.8 1.6 2.1-1.2 3.7-3.2 4.4-5.6-2 1.2-4.1 2-6.4 2.5-1.8-2-4.5-3.2-7.4-3.2-5.6 0-10.1 4.5-10.1 10.1 0 .8.1 1.6.3 2.3C19.4 22.3 12 18.3 7 12.2c-.9 1.5-1.4 3.2-1.4 5.1 0 3.5 1.8 6.6 4.5 8.4-1.7-.1-3.2-.5-4.6-1.3v.1c0 4.9 3.5 9 8.1 9.9-.8.2-1.7.4-2.7.4-.7 0-1.3-.1-1.9-.2 1.3 4 5 6.9 9.4 7C15.1 44.3 10.7 46 6 46c-.8 0-1.6 0-2.4-.1 4.5 2.9 9.8 4.5 15.5 4.5 18.6 0 28.8-15.4 28.8-28.8v-1.3c1.9-1.4 3.6-3.2 4.9-5.2z"/></svg></defs></svg>