<svg version="1.1" xmlns="http://www.w3.org/2000/svg" viewBox="0 0 24 23.8" enable-background="new 0 0 24 23.8">
<path fill="#0a1421" d="M16.3,8.7c-1.7,1.2-2.7,1.9-2.7,2.9c0,0.6,0.3,1.2,0.7,1.8c0.3,0.4,0.7,1.1,0.7,1.4c0,0.2-0.2,0.5-0.5,0.8L8,8.7
	c0.2-0.2,0.6-0.4,0.9-0.5c0.3,0,0.7,0.4,1.1,0.7c0.5,0.5,1.1,0.9,1.8,1c1,0.1,1.8-0.9,3.1-2.5c0.9-1.2,2-2.6,3.3-3.7
	C19.6,2.4,21.1,2.1,22,2C21.7,5,18.6,7.1,16.3,8.7z M9.2,21.3c-0.5-0.4-1.2-1-1.9-1.6L6.5,19c-0.7-0.7-1.5-1.5-2.3-2.4l-0.6-0.8
	c-0.5-0.6-0.9-1.2-1.3-1.8c1-0.6,3.3-2.7,4.8-4.5l6.5,6.8C12.8,17.3,10.2,19.7,9.2,21.3z M24,1c0-0.4-0.4-0.8-0.8-0.9
	c-0.1,0-0.4-0.1-0.9-0.1c-1.1,0-3.3,0.3-5.5,2.1c-1.4,1.2-2.6,2.7-3.6,3.9c-0.5,0.6-1.1,1.4-1.4,1.7c-0.2-0.1-0.4-0.3-0.6-0.4
	c-0.6-0.5-1.4-1.2-2.4-1.2c-0.1,0-0.2,0-0.3,0C6.9,6.4,5.9,8,5.8,8.2c0,0.1,0,0.1-0.1,0.2c-2.2,3-5.1,4.4-5.2,4.5
	c-0.2,0.1-0.4,0.3-0.5,0.6C0,13.7,0,13.9,0.1,14.2c2.8,5.1,8.5,9.3,8.8,9.5c0.2,0.1,0.4,0.2,0.6,0.2c0.1,0,0.2,0,0.3,0
	c0.3-0.1,0.5-0.3,0.7-0.6c1-2.2,4-5.2,4.3-5.4c0,0,0.1,0,0.1-0.1c0.2-0.1,2-1.1,2.2-2.8c0.1-1-0.5-1.9-1-2.7l-0.4-0.6
	c0.3-0.3,1.2-0.9,1.8-1.4C20.2,8.4,24.4,5.5,24,1z M6.1,13.7l-2.5,2.5l0.3,0.3L6.5,14L6.1,13.7z M7.9,15.4L5.3,18l0.3,0.3l2.5-2.5
	L7.9,15.4z M9.8,17.3l-2.5,2.5l0.3,0.3l2.5-2.5L9.8,17.3z"/>
</svg>
