<svg version="1.1" xmlns="http://www.w3.org/2000/svg" viewBox="0 0 26 22" enable-background="new 0 0 26 22">
<path fill="#0a1421" d="M11.3,18.2v1.2c0,0.3,0.1,0.6,0.3,0.9v0c-1.2,0.4-3,0.7-5,0.7c-2,0-3.7-0.3-4.9-0.7c-0.6-0.2-1.1-0.4-1.3-0.6
	c-0.1-0.1-0.2-0.2-0.2-0.3c0-0.1,0-0.1,0-0.1v-1.8c1.5,0.8,3.9,1.2,6.6,1.2C8.3,18.7,10,18.5,11.3,18.2z M11.3,14.6l0,1.1l0,0v0.9
	c-1.2,0.4-2.9,0.6-4.8,0.6c-2,0-3.7-0.3-4.9-0.7c-0.6-0.2-1.1-0.4-1.3-0.6c-0.1-0.1-0.2-0.2-0.2-0.3c0-0.1,0-0.1,0-0.1v-1.6
	c1.5,0.8,3.9,1.2,6.6,1.2C8.3,15.1,10,14.9,11.3,14.6z M11.3,11.6l0,1.1l0,0v0.9c-1.2,0.4-2.9,0.6-4.8,0.6c-2,0-3.7-0.3-4.9-0.7
	c-0.6-0.2-1.1-0.4-1.3-0.6c-0.1-0.1-0.2-0.2-0.2-0.3c0-0.1,0-0.1,0-0.1v-1.6c1.5,0.8,3.9,1.2,6.6,1.2C8.3,12.1,10,11.9,11.3,11.6z
	 M11.8,7.9c-0.1,0.1-0.2,0.2-0.3,0.3c-0.1,0.2-0.3,0.5-0.3,0.8V10c-1.2,0.4-2.9,0.6-4.8,0.6c-2,0-3.7-0.3-4.9-0.7
	C1,9.7,0.5,9.5,0.3,9.3C0.2,9.1,0.1,9.1,0,9c0-0.1,0-0.1,0-0.1V7.4c1.5,0.8,3.9,1.2,6.6,1.2C8.6,8.6,10.4,8.3,11.8,7.9z M12.5,2.3
	c-1.1,0.6-3.3,1.1-5.9,1.1c-2,0-3.7-0.3-4.9-0.7C1,2.5,0.5,2.2,0.3,2C0.2,1.9,0.1,1.8,0,1.8c0-0.1,0-0.1,0-0.1c0,0,0,0,0-0.1
	c0.1-0.1,0.3-0.3,0.6-0.5C1.7,0.5,4,0,6.6,0c2,0,3.7,0.3,4.9,0.7c0.6,0.2,1.1,0.4,1.3,0.6C13,1.4,13,1.5,13.1,1.6c0,0,0,0.1,0,0.1
	c0,0,0,0,0,0.1C13,1.9,12.8,2.1,12.5,2.3z M12.4,6C11.4,6.6,9.1,7,6.6,7c-2,0-3.7-0.3-4.9-0.7C1,6.2,0.5,5.9,0.3,5.7
	C0.2,5.6,0.1,5.5,0,5.5c0-0.1,0-0.1,0-0.1V3.7c1.5,0.8,3.9,1.2,6.6,1.2c2.1,0,4-0.3,5.5-0.8c0.4-0.1,0.8-0.3,1.1-0.5v1.7
	c0,0,0,0,0,0.1C13,5.6,12.8,5.8,12.4,6z M25.3,9.7c-1.1,0.6-3.3,1.1-5.9,1.1c-2,0-3.7-0.3-4.9-0.7c-0.6-0.2-1.1-0.4-1.3-0.7
	C13,9.3,13,9.2,12.9,9.2c0,0,0-0.1,0-0.1c0,0,0,0,0-0.1c0.1-0.1,0.3-0.3,0.6-0.5c1.1-0.6,3.3-1.1,5.9-1.1c2,0,3.7,0.3,4.9,0.7
	c0.6,0.2,1.1,0.4,1.3,0.6C25.9,8.9,25.9,9,26,9c0,0.1,0,0.1,0,0.1c0,0,0,0,0,0.1C25.9,9.3,25.7,9.5,25.3,9.7z M25.3,13.2
	c-1.1,0.6-3.3,1.1-5.9,1.1c-2,0-3.7-0.3-4.9-0.7c-0.6-0.2-1.1-0.4-1.3-0.6c-0.1-0.1-0.2-0.2-0.2-0.3c0-0.1,0-0.1,0-0.1v-1.6
	c1.5,0.8,3.9,1.2,6.6,1.2c2.1,0,4-0.3,5.4-0.8c0.4-0.1,0.8-0.3,1.1-0.5v1.6c0,0,0,0,0,0.1C25.9,12.8,25.7,13,25.3,13.2z M25.3,17.2
	c-1.1,0.6-3.3,1.1-5.9,1.1c-2,0-3.7-0.3-4.9-0.7c-0.6-0.2-1.1-0.4-1.3-0.6c-0.1-0.1-0.2-0.2-0.2-0.3s0-0.1,0-0.1v-1.5
	c1.5,0.8,3.9,1.2,6.6,1.2c2.1,0,4-0.3,5.4-0.8c0.4-0.1,0.8-0.3,1.1-0.5v1.5c0,0,0,0,0,0.1C25.9,16.8,25.7,17,25.3,17.2z M26,20.4
	c-0.1,0.1-0.3,0.3-0.6,0.5C24.3,21.5,22,22,19.4,22c-2,0-3.7-0.3-4.9-0.7c-0.6-0.2-1.1-0.4-1.3-0.6c-0.1-0.1-0.2-0.2-0.2-0.2
	c0-0.1,0-0.1,0-0.1v-1.7c1.5,0.8,3.9,1.2,6.6,1.2c2.1,0,4-0.3,5.4-0.8c0.4-0.1,0.8-0.3,1.1-0.5L26,20.4C26,20.3,26,20.4,26,20.4z"/>
</svg>
