<svg xmlns="http://www.w3.org/2000/svg" viewBox="0 0 41.3 28.5" enable-background="new 0 0 41.3 28.5">
<path fill="#0a1421" d="M39,0H2.3C1,0,0,1,0,2.3V22c0,1.2,1,2.3,2.3,2.3H39c1.2,0,2.3-1,2.3-2.3V2.3C41.3,1,40.2,0,39,0z M39.3,22H1.9V2h37.4V22z
	 M9.4,14.4H9V9H7.2V8.7h4.1V9H9.4V14.4z M16.9,11.5c0,0.9-0.2,1.6-0.7,2.2s-1.1,0.8-1.9,0.8c-0.8,0-1.4-0.3-1.9-0.8
	s-0.7-1.2-0.7-2.2c0-0.9,0.2-1.6,0.7-2.1s1.1-0.8,1.9-0.8c0.8,0,1.4,0.3,1.9,0.8S16.9,10.6,16.9,11.5z M12.3,11.5
	c0,0.8,0.2,1.5,0.5,1.9s0.9,0.7,1.6,0.7c0.7,0,1.2-0.2,1.6-0.7s0.5-1.1,0.5-1.9c0-0.8-0.2-1.5-0.5-1.9S15.1,9,14.4,9
	c-0.7,0-1.2,0.2-1.6,0.7S12.3,10.7,12.3,11.5z M21,14.4V8.7h0.4V14h2.7v0.4H21z M28.7,14.4h-3.1V8.7h3.1V9h-2.7v2.2h2.6v0.4h-2.6V14
	h2.7V14.4z M32.2,14.4h-0.4V9H30V8.7h4.1V9h-1.9V14.4z M20,28.5l0-4.4h1.2l0,4.4H20z"/>
</svg>
